<svg xmlns="http://www.w3.org/2000/svg" xmlns:xlink="http://www.w3.org/1999/xlink" width="243.234" height="221.175" viewBox="0 0 243.234 221.175">
  <defs>
    <style>
      .cls-1 {
        fill: none;
      }

      .cls-2 {
        clip-path: url(#clip-path);
      }

      .cls-3, .cls-5 {
        fill: #2d1e1e;
      }

      .cls-4 {
        clip-path: url(#clip-path-2);
      }

      .cls-5 {
        stroke: #160e0e;
        stroke-width: 5px;
      }

      .cls-6 {
        fill: #3e2929;
      }

      .cls-7 {
        stroke: none;
      }
    </style>
    <clipPath id="clip-path">
      <rect class="cls-1" width="243.234" height="221.174"/>
    </clipPath>
    <clipPath id="clip-path-2">
      <rect class="cls-1" width="121.169" height="121.169"/>
    </clipPath>
  </defs>
  <g id="Component_37_1" data-name="Component 37 – 1" class="cls-2" transform="translate(0 0)">
    <path id="Path_72" data-name="Path 72" class="cls-3" d="M0,13.965H71.378s9.454-67.4,8.756,93.938-8.756,93.718-8.756,93.718H0S18.909,158.4,18.909,111.484,0,13.965,0,13.965Z" transform="matrix(0.53, 0.848, -0.848, 0.53, 182.908, 38.893)"/>
    <g id="Component_13_2" data-name="Component 13 – 2" class="cls-4" transform="translate(122.064 0)">
      <g id="Ellipse_11" data-name="Ellipse 11" class="cls-5" transform="translate(16.997 16.336)">
        <ellipse class="cls-7" cx="43.651" cy="43.651" rx="43.651" ry="43.651"/>
        <ellipse class="cls-1" cx="43.651" cy="43.651" rx="41.151" ry="41.151"/>
      </g>
      <ellipse id="Ellipse_10" data-name="Ellipse 10" class="cls-6" cx="60.585" cy="60.585" rx="60.585" ry="60.585" transform="translate(0)"/>
      <ellipse id="Ellipse_11-2" data-name="Ellipse 11" class="cls-3" cx="51.368" cy="51.368" rx="51.368" ry="51.368" transform="translate(8.95 8.95)"/>
      <ellipse id="Ellipse_47" data-name="Ellipse 47" class="cls-6" cx="47.081" cy="47.081" rx="47.081" ry="47.081" transform="translate(13.504 13.504)"/>
    </g>
  </g>
</svg>
