<svg width="640" height="479.99999999999994" xmlns="http://www.w3.org/2000/svg" xmlns:svg="http://www.w3.org/2000/svg">
 <!-- Created with SVG-edit - http://svg-edit.googlecode.com/ -->
 <defs>
  <linearGradient y1="1" x1="0" y2="0" x2="1" id="svg_1">
   <stop offset="0" stop-opacity="0.996094" stop-color="#70cee2"/>
   <stop offset="1" stop-opacity="0.996094" stop-color="#fff07c"/>
  </linearGradient>
 </defs>
 <g>
  <title>Layer 1</title>
  <ellipse transform="translate(12, 61.3333) translate(-2.25, -96) translate(14.25, 8.25) translate(-0.75) translate(520.889, -176) translate(-394, 228) translate(-40, -21) translate(2, -1) translate(2, 2) translate(-41, 13) translate(-301, -46) translate(272, 37) translate(-63, -47) translate(-51, -84) translate(170, 209) translate(429, 353) scale(0.804795) translate(-429, -353) translate(429, 353) scale(0.854452) translate(-429, -353)" ry="292" rx="292" id="svg_2" cy="61" cx="137" stroke-width="0" stroke="#000000" fill="url(#svg_1)"/>
  <path transform="translate(12, 61.3333) translate(-2.25, -96)" d="m37.605598,157.972519l363.788841,151.055008"/>
  <path transform="translate(12, 61.3333) translate(-2.25, -96)" d="m34.576149,131.620667l377.84774,158.758759"/>
  <path transform="translate(12, 61.3333) translate(-2.25, -96)" d="m34.576149,131.620667l377.84774,158.758759"/>
  <path transform="translate(12, 61.3333) translate(-2.25, -96)" d="m34.576149,131.620667l377.84774,158.758759"/>
  <path transform="translate(12, 61.3333) translate(-2.25, -96)" d="m34.576149,131.620667l377.84774,158.758759"/>
  <path transform="translate(12, 61.3333) translate(-2.25, -96)" d="m34.576149,131.620667l377.84774,158.758759"/>
  <path transform="translate(12, 61.3333) translate(-2.25, -96)" d="m34.576149,131.620667l377.84774,158.758759"/>
  <path transform="translate(12, 61.3333) translate(-2.25, -96)" d="m34.576149,131.620667l377.84774,158.758759"/>
  <path transform="translate(12, 61.3333) translate(-2.25, -96)" d="m34.576149,131.620667l377.84774,158.758759"/>
  <path transform="translate(12, 61.3333) translate(-2.25, -96)" d="m34.576149,131.620667l377.84774,158.758759"/>
  <path transform="translate(12, 61.3333) translate(-2.25, -96)" d="m54.576149,151.620667l377.84774,158.758759"/>
  <path transform="translate(12, 61.3333) translate(-2.25, -96)" d="m54.576149,151.620667l377.84774,158.758759"/>
  <path transform="translate(12, 61.3333) translate(-2.25, -96)" d="m54.576149,151.620667l377.84774,158.758759"/>
  <path transform="translate(12, 61.3333) translate(-2.25, -96)" d="m54.576149,151.620667l377.84774,158.758759"/>
  <path transform="translate(12, 61.3333) translate(-2.25, -96)" d="m54.576149,151.620667l377.84774,158.758759"/>
  <path transform="translate(12, 61.3333) translate(-2.25, -96)" d="m54.576149,151.620667l377.84774,158.758759"/>
  <path transform="translate(12, 61.3333) translate(-2.25, -96)" d="m54.576149,151.620667l377.84774,158.758759"/>
  <path transform="translate(12, 61.3333) translate(-2.25, -96)" d="m54.576149,151.620667l377.84774,158.758759"/>
  <path transform="translate(12, 61.3333) translate(-2.25, -96)" d="m54.576149,151.620667l377.84774,158.758759"/>
  <path transform="translate(12, 61.3333) translate(-2.25, -96)" d="m74.576149,171.620667l377.84774,158.758759"/>
  <path transform="translate(12, 61.3333) translate(-2.25, -96)" d="m74.576149,171.620667l377.84774,158.758759"/>
  <path transform="translate(12, 61.3333) translate(-2.25, -96)" d="m74.576149,171.620667l377.84774,158.758759"/>
  <path transform="translate(12, 61.3333) translate(-2.25, -96)" d="m74.576149,171.620667l377.84774,158.758759"/>
  <path transform="translate(12, 61.3333) translate(-2.25, -96)" d="m74.576149,171.620667l377.84774,158.758759"/>
  <path transform="translate(12, 61.3333) translate(-2.25, -96)" d="m74.576149,170.620667l377.84774,158.758759"/>
  <path transform="translate(12, 61.3333) translate(-2.25, -96)" d="m74.576149,170.620667l377.84774,158.758759"/>
  <path transform="translate(12, 61.3333) translate(-2.25, -96)" d="m74.576149,170.620667l377.84774,158.758759"/>
  <path transform="translate(12, 61.3333) translate(-2.25, -96)" d="m74.576149,170.620667l377.84774,158.758759"/>
  <path transform="translate(12, 61.3333) translate(-2.25, -96)" d="m94.576149,191.620667l377.84774,158.758759"/>
  <path transform="translate(12, 61.3333) translate(-2.25, -96)" d="m94.576149,191.620667l377.84774,158.758759"/>
  <path transform="translate(12, 61.3333) translate(-2.25, -96)" d="m94.576149,191.620667l377.84774,158.758759"/>
  <path transform="translate(12, 61.3333) translate(-2.25, -96)" d="m94.576149,191.620667l377.84774,158.758759"/>
  <path transform="translate(12, 61.3333) translate(-2.25, -96)" d="m94.576149,191.620667l377.84774,158.758759"/>
  <path transform="translate(12, 61.3333) translate(-2.25, -96)" d="m94.576149,191.620667l377.84774,158.758759"/>
  <path transform="translate(12, 61.3333) translate(-2.25, -96)" d="m94.576149,191.620667l377.84774,158.758759"/>
  <path transform="translate(12, 61.3333) translate(-2.25, -96)" d="m94.576149,191.620667l377.84774,158.758759"/>
  <path transform="translate(12, 61.3333) translate(-2.25, -96)" d="m114.576149,211.620667l377.84774,158.758759"/>
  <path transform="translate(12, 61.3333) translate(-2.25, -96)" d="m114.576149,211.620667l377.84774,158.758759"/>
  <path transform="translate(12, 61.3333) translate(-2.25, -96)" d="m114.576149,211.620667l377.84774,158.758759"/>
  <path transform="translate(12, 61.3333) translate(-2.25, -96)" d="m114.576149,211.620667l377.84774,158.758759"/>
  <path transform="translate(12, 61.3333) translate(-2.25, -96)" d="m114.576149,211.620667l377.84774,158.758759"/>
  <path transform="translate(12, 61.3333) translate(-2.25, -96)" d="m114.576149,211.620667l377.84774,158.758759"/>
  <path transform="translate(12, 61.3333) translate(-2.25, -96)" d="m114.576149,211.620667l377.84774,158.758759"/>
  <path transform="translate(12, 61.3333) translate(-2.25, -96)" d="m134.576141,231.620667l377.847748,158.758759"/>
  <path transform="translate(12, 61.3333) translate(-2.25, -96)" d="m134.576141,231.620667l377.847748,158.758759"/>
  <path transform="translate(12, 61.3333) translate(-2.25, -96)" d="m134.576141,231.620667l377.847748,158.758759"/>
  <path transform="translate(12, 61.3333) translate(-2.25, -96)" d="m134.576141,231.620667l377.847748,158.758759"/>
  <path transform="translate(12, 61.3333) translate(-2.25, -96)" d="m134.576141,231.620667l377.847748,158.758759"/>
  <path transform="translate(12, 61.3333) translate(-2.25, -96)" d="m134.576141,231.620667l377.847748,158.758759"/>
  <path transform="translate(12, 61.3333) translate(-2.25, -96)" d="m134.576141,231.620667l377.847748,158.758759"/>
  <path transform="translate(12, 61.3333) translate(-2.25, -96)" d="m63.076126,415.870667l377.847763,158.758789"/>
  <path transform="translate(12, 61.3333) translate(-2.25, -96)" d="m63.076126,415.870667l377.847763,158.758789"/>
  <path transform="translate(12, 61.3333) translate(-2.25, -96)" d="m63.076126,415.870667l377.847763,158.758789"/>
  <path transform="translate(12, 61.3333) translate(-2.25, -96)" d="m63.076126,415.870667l377.847763,158.758789"/>
  <path transform="translate(12, 61.3333) translate(-2.25, -96)" d="m63.076126,415.870667l377.847763,158.758789"/>
  <path transform="translate(12, 61.3333) translate(-2.25, -96)" d="m63.076126,415.870667l377.847763,158.758789"/>
  <path transform="translate(12, 61.3333) translate(-2.25, -96)" d="m63.076126,415.870667l377.847763,158.758789"/>
  <path transform="translate(12, 61.3333) translate(-2.25, -96)" d="m83.076126,435.870667l377.847763,158.758789"/>
  <path transform="translate(12, 61.3333) translate(-2.25, -96)" d="m83.076126,435.870667l377.847763,158.758789"/>
  <path transform="translate(12, 61.3333) translate(-2.25, -96)" d="m83.076126,435.870667l377.847763,158.758789"/>
  <path transform="translate(12, 61.3333) translate(-2.25, -96)" d="m83.076126,435.870667l377.847763,158.758789"/>
  <path transform="translate(12, 61.3333) translate(-2.25, -96)" d="m83.076126,435.870667l377.847763,158.758789"/>
  <path transform="translate(12, 61.3333) translate(-2.25, -96)" d="m83.076126,435.870667l377.847763,158.758789"/>
  <path transform="translate(12, 61.3333) translate(-2.25, -96)" d="m83.076126,435.870667l377.847763,158.758789"/>
  <path transform="translate(12, 61.3333) translate(-2.25, -96)" d="m103.076126,455.870667l377.847763,158.758789"/>
  <path transform="translate(12, 61.3333) translate(-2.25, -96)" d="m103.076126,455.870667l377.847763,158.758789"/>
  <path transform="translate(12, 61.3333) translate(-2.25, -96)" d="m103.076126,455.870667l377.847763,158.758789"/>
  <path transform="translate(12, 61.3333) translate(-2.25, -96)" d="m103.076126,455.870667l377.847763,158.758789"/>
  <path transform="translate(12, 61.3333) translate(-2.25, -96)" d="m103.076126,455.870667l377.847763,158.758789"/>
  <path transform="translate(12, 61.3333) translate(-2.25, -96)" d="m103.076126,455.870667l377.847763,158.758789"/>
  <path transform="translate(12, 61.3333) translate(-2.25, -96)" d="m103.076126,455.870667l377.847763,158.758789"/>
  <path transform="translate(12, 61.3333) translate(-2.25, -96)" d="m-37.187546,355.3125l641.812546,29.8125"/>
  <path transform="translate(12, 61.3333) translate(-2.25, -96)" d="m-37.187546,355.3125l641.812546,29.8125"/>
  <path transform="translate(12, 61.3333) translate(-2.25, -96)" d="m-37.187546,355.3125l641.812546,29.8125"/>
  <path transform="translate(12, 61.3333) translate(-2.25, -96)" d="m-37.187546,355.3125l641.812546,29.8125"/>
  <path transform="translate(12, 61.3333) translate(-2.25, -96)" d="m-37.187546,355.3125l641.812546,29.8125"/>
  <path transform="translate(12, 61.3333) translate(-2.25, -96)" d="m-37.187546,355.3125l641.812546,29.8125"/>
  <path transform="translate(12, 61.3333) translate(-2.25, -96)" d="m-37.187546,355.3125l641.812546,29.8125"/>
  <path transform="translate(12, 61.3333) translate(-2.25, -96)" d="m-37.187546,355.3125l641.812546,29.8125"/>
  <line transform="translate(12, 61.3333) translate(-2.25, -96)" id="svg_45" y2="380.250017" x2="539.750071" y1="381.750017" x1="102.500036" stroke-linecap="null" stroke-linejoin="null" stroke-dasharray="null" stroke-width="7" stroke="#a4dce9" fill="none"/>
  <line transform="translate(12, 61.3333) translate(-2.25, -96)" id="svg_46" y2="395.250017" x2="554.750071" y1="396.750017" x1="117.500036" stroke-linecap="null" stroke-linejoin="null" stroke-dasharray="null" stroke-width="7" stroke="#a4dce9" fill="none"/>
  <line transform="translate(12, 61.3333) translate(-2.25, -96)" id="svg_47" y2="410.250017" x2="569.750071" y1="411.750017" x1="132.500036" stroke-linecap="null" stroke-linejoin="null" stroke-dasharray="null" stroke-width="7" stroke="#a4dce9" fill="none"/>
  <line transform="translate(12, 61.3333) translate(-2.25, -96)" id="svg_48" y2="425.250017" x2="584.750071" y1="426.750017" x1="147.500036" stroke-linecap="null" stroke-linejoin="null" stroke-dasharray="null" stroke-width="7" stroke="#a4dce9" fill="none"/>
  <text id="svg_65" transform="translate(12, 61.3333) translate(-2.25, -96) matrix(6.77137, 0, 0, 6.77137, -862.885, -1191.92)" xml:space="preserve" text-anchor="middle" font-family="Sans-serif" font-size="24" y="230.628628" x="165.883716" stroke-linecap="null" stroke-linejoin="null" stroke-dasharray="null" stroke-width="0" stroke="#ffffff" fill="#ffffff">B</text>
  <text id="svg_66" transform="translate(12, 61.3333) translate(-2.25, -96) matrix(6.77137, 0, 0, 6.77137, -862.885, -1191.92)" xml:space="preserve" text-anchor="middle" font-family="Sans-serif" font-size="24" y="230.628628" x="153.921586" stroke-linecap="null" stroke-linejoin="null" stroke-dasharray="null" stroke-width="0" stroke="#ffffff" fill="#ffffff">A</text>
 </g>
</svg>