<svg xmlns="http://www.w3.org/2000/svg" xmlns:xlink="http://www.w3.org/1999/xlink" width="73.042" height="73.157" viewBox="0 0 73.042 73.157">
  <defs>
    <clipPath id="clip-path">
      <rect width="73.042" height="73.157" fill="none"/>
    </clipPath>
  </defs>
  <g id="Logo-Round-AB" clip-path="url(#clip-path)">
    <g id="Subtraction_1" data-name="Subtraction 1" transform="translate(-10.396 123.5)" fill="#fff">
      <path d="M 37.87550354003906 -51.59482192993164 C 24.78470802307129 -54.80301284790039 14.50407314300537 -65.16429138183594 11.43694496154785 -78.33938598632813 L 13.52841186523438 -84.09770202636719 L 33.1248893737793 -84.09770202636719 L 37.87550354003906 -71.63409423828125 L 37.87550354003906 -51.59482192993164 Z M 57.57120513916016 -53.18740081787109 L 46.50580596923828 -53.18740081787109 L 46.50580596923828 -68.41339874267578 L 56.71710586547852 -68.41339874267578 C 62.43087387084961 -68.41339874267578 64.98060607910156 -67.39830780029297 66.11342620849609 -66.54676055908203 C 67.67422485351563 -65.37346649169922 68.46561431884766 -63.44010925292969 68.46561431884766 -60.80039978027344 C 68.46561431884766 -59.60145950317383 68.27417755126953 -58.53898239135742 67.89626312255859 -57.63795471191406 C 65.55001831054688 -55.89508056640625 63.00077819824219 -54.44431686401367 60.31330108642578 -53.32269668579102 C 59.46703720092773 -53.23290252685547 58.54533767700195 -53.18740081787109 57.57120513916016 -53.18740081787109 Z M 76.22150421142578 -66.31114196777344 C 75.82817077636719 -67.21199798583984 75.33101654052734 -68.07566070556641 74.7344970703125 -68.89253997802734 C 73.39116668701172 -70.73105621337891 71.51664733886719 -72.13416290283203 69.14434814453125 -73.0809326171875 C 72.94969177246094 -75.56560516357422 74.87560272216797 -79.0830078125 74.87560272216797 -83.56410217285156 C 74.87560272216797 -87.84263610839844 73.19944763183594 -91.26322937011719 69.89368438720703 -93.73085784912109 C 66.67759704589844 -96.13085174560547 62.244384765625 -97.34770202636719 56.71710586547852 -97.34770202636719 L 38.87550354003906 -97.34770202636719 L 37.87550354003906 -97.34770202636719 L 37.87550354003906 -96.34770202636719 L 37.87550354003906 -95.14041900634766 L 28.64108467102051 -117.7780532836914 C 34.05062866210938 -120.8697357177734 40.19548416137695 -122.4998016357422 46.46880340576172 -122.4998016357422 C 51.32505416870117 -122.4998016357422 56.03550338745117 -121.5489501953125 60.46930313110352 -119.6736602783203 C 64.75234222412109 -117.8621368408203 68.59916687011719 -115.2685394287109 71.90288543701172 -111.9648971557617 C 75.20660400390625 -108.6612319946289 77.80027770996094 -104.8144302368164 79.61183166503906 -100.5313720703125 C 81.48721313476563 -96.09751129150391 82.43810272216797 -91.38694000244141 82.43810272216797 -86.53050231933594 C 82.43810272216797 -82.52958679199219 81.7860107421875 -78.60041809082031 80.49996185302734 -74.85212707519531 C 79.46089172363281 -71.82371520996094 78.02501678466797 -68.95848846435547 76.22150421142578 -66.31114196777344 Z M 56.64870452880859 -76.36149597167969 L 46.50580596923828 -76.36149597167969 L 46.50580596923828 -89.4005126953125 L 56.03310394287109 -89.4005126953125 C 59.91024398803711 -89.4005126953125 62.74297332763672 -88.82363891601563 64.22504425048828 -87.73226928710938 C 65.65283203125 -86.68029022216797 66.34700775146484 -85.12693023681641 66.34700775146484 -82.98358917236328 C 66.34700775146484 -80.61344909667969 65.62079620361328 -78.91948699951172 64.18856811523438 -77.94877624511719 C 62.63380432128906 -76.89557647705078 60.09695434570313 -76.36149597167969 56.64870452880859 -76.36149597167969 Z M 30.41729927062988 -91.36180114746094 L 16.06456184387207 -91.36180114746094 L 23.06958961486816 -110.7264862060547 L 30.41729927062988 -91.36180114746094 Z" stroke="none"/>
      <path d="M 36.87550735473633 -52.89378356933594 L 36.87550735473633 -71.44996643066406 L 32.43587112426758 -83.09770202636719 L 14.2291259765625 -83.09770202636719 L 12.47898483276367 -78.27915191650391 C 15.44138622283936 -66.02459716796875 24.83588600158691 -56.31935119628906 36.87550735473633 -52.89378356933594 M 57.57119750976563 -54.18740463256836 C 58.45488357543945 -54.18740463256836 59.29171371459961 -54.22602844238281 60.06332778930664 -54.30230712890625 C 62.53889465332031 -55.34782791137695 64.89266204833984 -56.68125152587891 67.07041168212891 -58.27164840698242 C 67.33284759521484 -58.9972038269043 67.46562194824219 -59.84542465209961 67.46562194824219 -60.8004035949707 C 67.46562194824219 -63.14131546020508 66.82676696777344 -64.75949096679688 65.51255035400391 -65.74740600585938 C 64.68485260009766 -66.36960601806641 62.44156265258789 -67.41339111328125 56.71710968017578 -67.41339111328125 L 47.50579833984375 -67.41339111328125 L 47.50579833984375 -54.18740463256836 L 57.57119750976563 -54.18740463256836 M 76.31972503662109 -68.30512237548828 C 77.64524078369141 -70.47039794921875 78.72856903076172 -72.77066040039063 79.55408477783203 -75.17665863037109 C 80.80422973632813 -78.82029724121094 81.4381103515625 -82.64028167724609 81.4381103515625 -86.53050231933594 C 81.4381103515625 -91.25235748291016 80.51378631591797 -95.83187103271484 78.69082641601563 -100.1418151855469 C 76.9296875 -104.3056716918945 74.40798187255859 -108.0456237792969 71.19578552246094 -111.2577819824219 C 67.98357391357422 -114.4699172973633 64.24359893798828 -116.9915618896484 60.07975387573242 -118.7526626586914 C 55.7698860168457 -120.5755233764648 51.19049835205078 -121.4998016357422 46.46880722045898 -121.4998016357422 C 40.66358947753906 -121.4998016357422 34.97158050537109 -120.0641098022461 29.90212059020996 -117.3342437744141 L 37.64718246459961 -98.34770202636719 L 38.87550735473633 -98.34770202636719 L 56.71710968017578 -98.34770202636719 C 62.46466445922852 -98.34770202636719 67.09908294677734 -97.06404876708984 70.49187469482422 -94.53221893310547 C 74.01393890380859 -91.90311431884766 75.8756103515625 -88.11040496826172 75.8756103515625 -83.56410217285156 C 75.8756103515625 -79.37274932861328 74.23684692382813 -75.87850952148438 71.09239196777344 -73.28165435791016 C 72.91046142578125 -72.31617736816406 74.39948272705078 -71.04608154296875 75.54209899902344 -69.48229217529297 C 75.82174682617188 -69.09933471679688 76.08106994628906 -68.70670318603516 76.31972503662109 -68.30512237548828 M 56.64870834350586 -77.36150360107422 C 60.69020843505859 -77.36150360107422 62.67477416992188 -78.13117218017578 63.62751770019531 -78.77657318115234 C 64.78455352783203 -79.56076049804688 65.34700012207031 -80.93689727783203 65.34700012207031 -82.98359680175781 C 65.34700012207031 -84.78690338134766 64.78591156005859 -86.07691955566406 63.63206481933594 -86.92704010009766 C 62.88478469848633 -87.47732543945313 60.90387344360352 -88.40050506591797 56.03310775756836 -88.40050506591797 L 47.50579833984375 -88.4005126953125 L 47.50579833984375 -77.36150360107422 L 56.64870834350586 -77.36150360107422 M 28.96829795837402 -92.36180114746094 L 23.09198951721191 -107.8486633300781 L 17.48973655700684 -92.36180114746094 L 28.96829795837402 -92.36180114746094 M 38.87550735473633 -50.34269332885742 C 24.73588562011719 -53.29516220092773 13.55719661712646 -64.309814453125 10.39644145965576 -78.40384674072266 L 12.82770824432373 -85.09770202636719 L 33.81390762329102 -85.09770202636719 L 38.87550735473633 -71.81819152832031 L 38.87550735473633 -50.34392547607422 L 38.87550735473633 -50.34269332885742 Z M 57.57119750976563 -52.18740463256836 L 45.50579833984375 -52.18740463256836 L 45.50579833984375 -69.41339111328125 L 56.71710968017578 -69.41339111328125 C 61.52591705322266 -69.41339111328125 64.88945007324219 -68.71785736083984 66.71430969238281 -67.34609222412109 C 68.53993988037109 -65.97372436523438 69.46562194824219 -63.77142715454102 69.46562194824219 -60.8004035949707 C 69.46562194824219 -59.35459518432617 69.20947265625 -58.07381439208984 68.70429992675781 -56.99365997314453 C 66.19577789306641 -55.1022834777832 63.45724105834961 -53.53811645507813 60.564453125 -52.3442268371582 C 59.64311981201172 -52.24013900756836 58.63614273071289 -52.18740463256836 57.57119750976563 -52.18740463256836 Z M 75.91147613525391 -64.17023468017578 L 75.91094207763672 -64.17220306396484 C 75.52146148681641 -65.64359283447266 74.85394287109375 -67.0333251953125 73.92691040039063 -68.30280303955078 C 72.32730865478516 -70.49205017089844 69.88337707519531 -72.01576232910156 66.66300964355469 -72.83160400390625 C 71.44887542724609 -75.14569091796875 73.8756103515625 -78.75600433349609 73.8756103515625 -83.56410217285156 C 73.8756103515625 -87.50991821289063 72.33463287353516 -90.66090393066406 69.29550933837891 -92.92950439453125 C 66.25606536865234 -95.19764709472656 62.02408599853516 -96.34770202636719 56.71710968017578 -96.34770202636719 L 38.87550735473633 -96.34770202636719 L 38.87550735473633 -90.04141235351563 L 27.38825225830078 -118.2017135620117 C 33.12980651855469 -121.6681823730469 39.72760772705078 -123.4998016357422 46.46880722045898 -123.4998016357422 C 51.45961761474609 -123.4998016357422 56.30112838745117 -122.5223693847656 60.85884094238281 -120.5946731567383 C 65.26109313964844 -118.7327346801758 69.21475219726563 -116.0671615600586 72.6099853515625 -112.6720123291016 C 76.00521087646484 -109.2768249511719 78.67085266113281 -105.3231811523438 80.53284454345703 -100.9209136962891 C 82.46063232421875 -96.36312866210938 83.4381103515625 -91.52150726318359 83.4381103515625 -86.53050231933594 C 83.4381103515625 -82.41891479492188 82.76779937744141 -78.38054656982422 81.44583129882813 -74.52759552001953 C 80.16802215576172 -70.80335235595703 78.30640411376953 -67.31918334960938 75.9127197265625 -64.17185211181641 L 75.91147613525391 -64.17023468017578 Z M 56.64870834350586 -75.36150360107422 L 45.50579833984375 -75.36150360107422 L 45.50579833984375 -90.4005126953125 L 56.03310775756836 -90.40050506591797 C 60.18359756469727 -90.40050506591797 63.13927459716797 -89.77369689941406 64.8179931640625 -88.53749084472656 C 66.49613189697266 -87.30108642578125 67.34700012207031 -85.43247222900391 67.34700012207031 -82.98359680175781 C 67.34700012207031 -80.26158142089844 66.47312164306641 -78.28912353515625 64.74961090087891 -77.12099456787109 C 63.02608489990234 -75.95348358154297 60.30055236816406 -75.36150360107422 56.64870834350586 -75.36150360107422 Z M 31.86631965637207 -90.36180114746094 L 31.8648624420166 -90.36180114746094 L 14.63940811157227 -90.36180114746094 L 23.04720687866211 -113.6043014526367 L 31.86579704284668 -90.36315155029297 L 31.86631965637207 -90.36180114746094 Z" stroke="none" fill="#333"/>
    </g>
  </g>
</svg>
