<svg xmlns="http://www.w3.org/2000/svg" xmlns:xlink="http://www.w3.org/1999/xlink" width="386" height="386" viewBox="0 0 386 386">
  <defs>
    <style>
      .cls-1 {
        fill: none;
      }

      .cls-2 {
        clip-path: url(#clip-path);
      }

      .cls-3 {
        fill: #291f1f;
      }

      .cls-4 {
        fill: #fff;
      }

      .cls-5, .cls-6 {
        stroke: none;
      }

      .cls-6 {
        fill: rgba(71,56,56,0.81);
      }
    </style>
    <clipPath id="clip-path">
      <rect class="cls-1" width="386" height="386"/>
    </clipPath>
  </defs>
  <g id="Component_39_1" data-name="Component 39 – 1" class="cls-2" transform="translate(0)">
    <g id="Path_86" data-name="Path 86" class="cls-3">
      <path class="cls-5" d="M193,0C299.591,0,386,86.409,386,193S299.591,386,193,386,0,299.591,0,193,86.409,0,193,0Z"/>
      <path class="cls-6" d="M 192.9999847412109 1.999969482421875 C 180.0395812988281 1.999969482421875 167.087890625 3.305572509765625 154.5046844482422 5.88043212890625 C 142.2423400878906 8.389678955078125 130.1806793212891 12.13381958007813 118.65478515625 17.00888061523438 C 107.3376770019531 21.79562377929688 96.42218017578125 27.72039794921875 86.21148681640625 34.61859130859375 C 76.09722900390625 41.45162963867188 66.58624267578125 49.29891967773438 57.94259643554688 57.94259643554688 C 49.29891967773438 66.58624267578125 41.45162963867188 76.09722900390625 34.61859130859375 86.21148681640625 C 27.72039794921875 96.42218017578125 21.79562377929688 107.3376770019531 17.00888061523438 118.65478515625 C 12.13381958007813 130.1806793212891 8.389678955078125 142.2423400878906 5.88043212890625 154.5046844482422 C 3.305572509765625 167.087890625 1.999969482421875 180.0395812988281 1.999969482421875 192.9999847412109 C 1.999969482421875 205.9603881835938 3.305572509765625 218.9120788574219 5.88043212890625 231.4952392578125 C 8.389678955078125 243.7576293945313 12.13381958007813 255.8192901611328 17.00888061523438 267.3451843261719 C 21.79562377929688 278.6622924804688 27.72039794921875 289.5777893066406 34.61859130859375 299.7884826660156 C 41.45162963867188 309.9026794433594 49.29891967773438 319.4137268066406 57.94259643554688 328.0573425292969 C 66.58624267578125 336.7009887695313 76.09722900390625 344.54833984375 86.21148681640625 351.38134765625 C 96.42218017578125 358.2795715332031 107.3376770019531 364.204345703125 118.65478515625 368.9910888671875 C 130.1806793212891 373.8661499023438 142.2423400878906 377.6102905273438 154.5046844482422 380.1195373535156 C 167.087890625 382.6943969726563 180.0395812988281 384 192.9999847412109 384 C 205.9603881835938 384 218.9120788574219 382.6943969726563 231.4952392578125 380.1195373535156 C 243.7576293945313 377.6102905273438 255.8192901611328 373.8661499023438 267.3451843261719 368.9910888671875 C 278.6622924804688 364.204345703125 289.5777893066406 358.2795715332031 299.7884826660156 351.38134765625 C 309.9026794433594 344.54833984375 319.4137268066406 336.7009887695313 328.0573425292969 328.0573425292969 C 336.7009887695313 319.4137268066406 344.54833984375 309.9026794433594 351.38134765625 299.7884826660156 C 358.2795715332031 289.5777893066406 364.204345703125 278.6622924804688 368.9910888671875 267.3451843261719 C 373.8661499023438 255.8192901611328 377.6102905273438 243.7576293945313 380.1195373535156 231.4952392578125 C 382.6943969726563 218.9120788574219 384 205.9603881835938 384 192.9999847412109 C 384 180.0395812988281 382.6943969726563 167.087890625 380.1195373535156 154.5046844482422 C 377.6102905273438 142.2423400878906 373.8661499023438 130.1806793212891 368.9910888671875 118.65478515625 C 364.204345703125 107.3376770019531 358.2795715332031 96.42218017578125 351.38134765625 86.21148681640625 C 344.54833984375 76.09722900390625 336.7009887695313 66.58624267578125 328.0573425292969 57.94259643554688 C 319.4137268066406 49.29891967773438 309.9026794433594 41.45162963867188 299.7884826660156 34.61859130859375 C 289.5777893066406 27.72039794921875 278.6622924804688 21.79562377929688 267.3451843261719 17.00888061523438 C 255.8192901611328 12.13381958007813 243.7576293945313 8.389678955078125 231.4952392578125 5.88043212890625 C 218.9120788574219 3.305572509765625 205.9603881835938 1.999969482421875 192.9999847412109 1.999969482421875 M 192.9999847412109 -3.0517578125e-05 C 299.5908813476563 -3.0517578125e-05 386 86.40902709960938 386 192.9999847412109 C 386 299.5908813476563 299.5908813476563 386 192.9999847412109 386 C 86.40902709960938 386 -3.0517578125e-05 299.5908813476563 -3.0517578125e-05 192.9999847412109 C -3.0517578125e-05 86.40902709960938 86.40902709960938 -3.0517578125e-05 192.9999847412109 -3.0517578125e-05 Z"/>
    </g>
    <path id="Path_87" data-name="Path 87" class="cls-4" d="M20.316,0H52.821A20.316,20.316,0,0,1,73.137,20.316V52.821A20.316,20.316,0,0,1,52.821,73.137H20.316A20.316,20.316,0,0,1,0,52.821V20.316A20.316,20.316,0,0,1,20.316,0Z" transform="matrix(0.719, -0.695, 0.695, 0.719, 52.919, 276.408)"/>
    <rect id="Rectangle_104" data-name="Rectangle 104" class="cls-4" width="73.137" height="73.137" rx="20" transform="translate(156.432 360.605) rotate(-90)"/>
    <rect id="Rectangle_103" data-name="Rectangle 103" class="cls-4" width="73.137" height="73.137" rx="20" transform="matrix(-0.695, -0.719, 0.719, -0.695, 280.471, 329.293)"/>
    <rect id="Rectangle_104-2" data-name="Rectangle 104" class="cls-4" width="73.137" height="73.137" rx="20" transform="translate(364.668 225.824) rotate(180)"/>
    <rect id="Rectangle_103-2" data-name="Rectangle 103" class="cls-4" width="73.137" height="73.137" rx="20" transform="matrix(-0.719, 0.695, -0.695, -0.719, 333.313, 101.784)"/>
    <rect id="Rectangle_104-3" data-name="Rectangle 104" class="cls-4" width="73.137" height="73.137" rx="20" transform="translate(229.843 24.268) rotate(90)"/>
    <path id="Path_82" data-name="Path 82" class="cls-4" d="M20.316,0H52.821A20.316,20.316,0,0,1,73.137,20.316V52.821A20.316,20.316,0,0,1,52.821,73.137H20.316A20.316,20.316,0,0,1,0,52.821V20.316A20.316,20.316,0,0,1,20.316,0Z" transform="translate(22.347 152.137)"/>
    <rect id="Rectangle_103-3" data-name="Rectangle 103" class="cls-4" width="73.137" height="73.137" rx="20" transform="matrix(0.695, 0.719, -0.719, 0.695, 105.804, 48.624)"/>
  </g>
</svg>
