<svg xmlns="http://www.w3.org/2000/svg" xmlns:xlink="http://www.w3.org/1999/xlink" width="1168.01" height="742.442" viewBox="0 0 1168.01 742.442">
  <defs>
    <style>
      .cls-1 {
        fill: none;
      }

      .cls-2 {
        clip-path: url(#clip-path);
      }

      .cls-10, .cls-3 {
        fill: #2d1e1e;
      }

      .cls-4 {
        fill: #362a2a;
      }

      .cls-20, .cls-4 {
        stroke: #707070;
      }

      .cls-5 {
        clip-path: url(#clip-path-2);
      }

      .cls-6 {
        fill: #eb4747;
      }

      .cls-7 {
        clip-path: url(#clip-path-4);
      }

      .cls-8 {
        fill: #ec1c1c;
      }

      .cls-9 {
        clip-path: url(#clip-path-5);
      }

      .cls-10 {
        stroke: #160e0e;
      }

      .cls-10, .cls-23 {
        stroke-width: 5px;
      }

      .cls-11, .cls-23 {
        fill: #3e2929;
      }

      .cls-12 {
        clip-path: url(#clip-path-6);
      }

      .cls-13 {
        clip-path: url(#clip-path-8);
      }

      .cls-14 {
        clip-path: url(#clip-path-9);
      }

      .cls-15 {
        fill: #e63434;
      }

      .cls-16 {
        fill: #9e1616;
      }

      .cls-17 {
        fill: #e94a4a;
      }

      .cls-18 {
        clip-path: url(#clip-path-11);
      }

      .cls-19 {
        clip-path: url(#clip-path-12);
      }

      .cls-20, .cls-21 {
        fill: #881a1a;
      }

      .cls-22 {
        fill: #eb1b1b;
      }

      .cls-23 {
        stroke: #eb3434;
      }

      .cls-24 {
        stroke: none;
      }
    </style>
    <clipPath id="clip-path">
      <rect class="cls-1" width="1168.01" height="742.442"/>
    </clipPath>
    <clipPath id="clip-path-2">
      <rect class="cls-1" width="930.036" height="424.164"/>
    </clipPath>
    <clipPath id="clip-path-4">
      <rect class="cls-1" width="879.165" height="399.521"/>
    </clipPath>
    <clipPath id="clip-path-5">
      <rect class="cls-1" width="162.533" height="162.533"/>
    </clipPath>
    <clipPath id="clip-path-6">
      <rect class="cls-1" width="928.731" height="401.93"/>
    </clipPath>
    <clipPath id="clip-path-8">
      <rect class="cls-1" width="888.404" height="378.405"/>
    </clipPath>
    <clipPath id="clip-path-9">
      <rect class="cls-1" width="440.037" height="239.051"/>
    </clipPath>
    <clipPath id="clip-path-11">
      <rect class="cls-1" width="161.66" height="112.046"/>
    </clipPath>
    <clipPath id="clip-path-12">
      <rect class="cls-1" width="1027.815" height="322.634"/>
    </clipPath>
  </defs>
  <g id="Component_18_1" data-name="Component 18 – 1" class="cls-2">
    <path id="Path_72" data-name="Path 72" class="cls-3" d="M0,13.865H95.744s12.682-66.918,11.745,93.265-11.745,93.047-11.745,93.047H0s25.364-42.913,25.364-89.491S0,13.865,0,13.865Z" transform="matrix(0.53, 0.848, -0.848, 0.53, 1087.091, 75.068)"/>
    <g id="Ellipse_6" data-name="Ellipse 6" class="cls-4" transform="translate(277.744 34.536)">
      <ellipse class="cls-24" cx="236.613" cy="236.613" rx="236.613" ry="236.613"/>
      <ellipse class="cls-1" cx="236.613" cy="236.613" rx="236.113" ry="236.113"/>
    </g>
    <g id="Component_14_1" data-name="Component 14 – 1" class="cls-5" transform="translate(49.166 318.278)">
      <g id="Bottom_Half" data-name="Bottom Half" class="cls-5">
        <path id="Path_22" data-name="Path 22" class="cls-6" d="M553.716,23.085l-37.75,226.939-31.745,191.5H105c-12.824,0-18.855.237-23.771-23.4S0,23.085,0,23.085C0,10.192,553.716,23.085,553.716,23.085Z" transform="translate(0 -17.354)"/>
        <path id="Path_29" data-name="Path 29" class="cls-6" d="M0,23.085,37.75,250.023l31.745,191.5H448.714c12.824,0,18.855.237,23.772-23.4S553.716,23.085,553.716,23.085C553.716,10.192,0,23.085,0,23.085Z" transform="translate(376.32 -17.354)"/>
      </g>
      <g id="Bottom_Half-2" data-name="Bottom Half" class="cls-7" transform="translate(26.989 13.085)">
        <path id="Path_22-2" data-name="Path 22" class="cls-8" d="M553.716,22.752l-37.75,213.754-31.745,180.37H105c-12.824,0-18.855.223-23.771-22.043S0,22.752,0,22.752C0,10.608,553.716,22.752,553.716,22.752Z" transform="translate(0 -17.354)"/>
        <path id="Path_29-2" data-name="Path 29" class="cls-8" d="M0,22.752,37.75,236.505l31.745,180.37H448.714c12.824,0,18.855.223,23.771-22.043S553.716,22.752,553.716,22.752C553.716,10.608,0,22.752,0,22.752Z" transform="translate(325.448 -17.354)"/>
      </g>
    </g>
    <g id="Component_13_2" data-name="Component 13 – 2" class="cls-9" transform="translate(1005.477 22.898)">
      <g id="Ellipse_11" data-name="Ellipse 11" class="cls-10" transform="translate(22.8 21.913)">
        <ellipse class="cls-24" cx="58.552" cy="58.552" rx="58.552" ry="58.552"/>
        <ellipse class="cls-1" cx="58.552" cy="58.552" rx="56.052" ry="56.052"/>
      </g>
      <ellipse id="Ellipse_10" data-name="Ellipse 10" class="cls-11" cx="81.267" cy="81.267" rx="81.267" ry="81.267"/>
      <ellipse id="Ellipse_11-2" data-name="Ellipse 11" class="cls-3" cx="68.903" cy="68.903" rx="68.903" ry="68.903" transform="translate(12.006 12.006)"/>
      <ellipse id="Ellipse_47" data-name="Ellipse 47" class="cls-11" cx="63.153" cy="63.153" rx="63.153" ry="63.153" transform="translate(18.114 18.114)"/>
    </g>
    <g id="Component_15_1" data-name="Component 15 – 1" class="cls-12" transform="translate(50.028)">
      <g id="Bridge" class="cls-12">
        <path id="Path_5" data-name="Path 5" class="cls-6" d="M608.862-22.1s-105.778-5.361-117.439-6.835S448.184-38.319,415.1-22.1,388.714,89.984,154.387,85.963C-16.67,83.028.452,369.77.452,369.77H608.862c20.885,0,37.815-16.268,37.815-36.335V37.562C646.677,17.495,649.035-20.9,608.862-22.1Z" transform="translate(282.028 32.16)"/>
        <path id="Path_6" data-name="Path 6" class="cls-6" d="M37.817-22.1S143.6-27.463,155.256-28.937s43.239-9.381,76.324,6.835S257.965,89.984,492.292,85.963C663.349,83.028,646.226,369.77,646.226,369.77H37.817C16.932,369.77,0,353.5,0,333.435V37.562C0,17.495-2.357-20.9,37.817-22.1Z" transform="translate(0.024 32.16)"/>
      </g>
      <g id="Bridge-2" data-name="Bridge" class="cls-13" transform="translate(21.382 17.487)">
        <path id="Path_5-2" data-name="Path 5" class="cls-8" d="M582.423-22.691s-101.185-5.047-112.339-6.435-41.361-8.832-73.009,6.435S371.834,82.835,147.682,79.049C-15.947,76.286.432,346.245.432,346.245H582.423c19.978,0,36.173-15.316,36.173-34.208V33.481C618.6,14.588,620.852-21.555,582.423-22.691Z" transform="translate(269.783 32.16)"/>
        <path id="Path_6-2" data-name="Path 6" class="cls-8" d="M36.174-22.691s101.185-5.047,112.339-6.435,41.361-8.832,73.01,6.435,25.24,105.526,249.392,101.74c163.63-2.763,147.251,267.2,147.251,267.2H36.174C16.2,346.245,0,330.929,0,312.036V33.481C0,14.588-2.256-21.555,36.174-22.691Z" transform="translate(0.024 32.16)"/>
      </g>
    </g>
    <g id="Component_16_1" data-name="Component 16 – 1" class="cls-14" transform="translate(294.132 128.247)">
      <g id="Indent" class="cls-14">
        <rect id="Rectangle_39" data-name="Rectangle 39" class="cls-15" width="440.037" height="226.763" rx="51"/>
        <rect id="Rectangle_30" data-name="Rectangle 30" class="cls-16" width="423.194" height="214.385" rx="54" transform="translate(6.673 5.984)"/>
        <path id="Path_34" data-name="Path 34" class="cls-17" d="M44.409-41.66l88.084,60.048c184.113-8.35,101.583,77.365,113.368,90.536,1.587,117.093,67.393,74.906-200.432,74.906-25.241,0-45.7-19.345-45.7-43.208L-1.294,1.548C-1.294-22.315,19.168-41.66,44.409-41.66Z" transform="translate(7.83 47.822)"/>
        <path id="Path_35" data-name="Path 35" class="cls-17" d="M208.653-41.66,120.569,18.388C-63.544,10.038,18.986,95.753,7.2,108.924,5.613,226.017-60.192,183.83,207.632,183.83c25.241,0,45.7-19.345,45.7-43.208L254.355,1.548C254.355-22.315,233.894-41.66,208.653-41.66Z" transform="translate(176.008 47.822)"/>
      </g>
      <g id="View_piece" data-name="View piece" class="cls-18" transform="translate(137.797 65.669)">
        <path id="Path_11" data-name="Path 11" class="cls-11" d="M2.451,0H86.086c1.354,0,27.079,112.046,27.079,112.046H38.382c-1.354,0-2.451-2.092-2.451-4.672L0,4.672C0,2.092,1.1,0,2.451,0Z" transform="translate(0 0)"/>
        <path id="Path_12" data-name="Path 12" class="cls-11" d="M112.38,0H27.487C26.112,0,0,112.046,0,112.046H75.909c1.374,0,2.488-2.092,2.488-4.672l36.471-102.7C114.868,2.092,113.754,0,112.38,0Z" transform="translate(46.792 0)"/>
      </g>
    </g>
    <g id="Eye_Piece" data-name="Eye Piece" class="cls-19" transform="translate(0 240.303)">
      <rect id="Rectangle_31" data-name="Rectangle 31" class="cls-8" width="383.314" height="80.449" transform="translate(337.432 60.336)"/>
      <g id="Rectangle_32" data-name="Rectangle 32" class="cls-20" transform="translate(98.452 89.913)">
        <rect class="cls-24" width="861.273" height="69.801"/>
        <rect class="cls-1" x="0.5" y="0.5" width="860.273" height="68.801"/>
      </g>
      <path id="Path_30" data-name="Path 30" class="cls-21" d="M53.783,0H373.726c29.7,0,53.783,23.247,53.783,51.923h0c0,28.676-24.08,246.3-373.726,246.3C24.08,298.225,0,274.979,0,246.3V51.923C0,23.247,24.08,0,53.783,0Z" transform="matrix(0.999, 0.035, -0.035, 0.999, 19.796, 9.67)"/>
      <path id="Path_25" data-name="Path 25" class="cls-21" d="M53.783,298.225H373.726c29.7,0,53.783-23.247,53.783-51.923h0C427.509,217.626,403.43,0,53.783,0,24.08,0,0,23.247,0,51.923V246.3C0,274.979,24.08,298.225,53.783,298.225Z" transform="matrix(-0.999, 0.035, -0.035, -0.999, 1018.427, 307.714)"/>
      <path id="Path_31" data-name="Path 31" class="cls-15" d="M53.052,0h315.59a53.052,53.052,0,0,1,53.052,53.052h0c0,29.3-23.752,251.656-368.642,251.656A53.052,53.052,0,0,1,0,251.656V53.052A53.052,53.052,0,0,1,53.052,0Z" transform="matrix(0.999, 0.035, -0.035, 0.999, 10.634, 0)"/>
      <path id="Path_26" data-name="Path 26" class="cls-15" d="M53.052,304.708h315.59a53.052,53.052,0,0,0,53.052-53.052h0C421.694,222.356,397.941,0,53.052,0A53.052,53.052,0,0,0,0,53.052v198.6A53.052,53.052,0,0,0,53.052,304.708Z" transform="matrix(-0.999, 0.035, -0.035, -0.999, 1027.815, 304.522)"/>
      <path id="Path_27" data-name="Path 27" class="cls-16" d="M42.921,275.474l291.756-3.054c23.7,0,42.921-21.473,42.921-47.962S321.948,0,42.921,0C19.216,0,0,21.473,0,47.962v179.55C0,254,19.216,275.474,42.921,275.474Z" transform="matrix(-0.999, 0.035, -0.035, -0.999, 1006.535, 292.356)"/>
      <path id="Path_32" data-name="Path 32" class="cls-16" d="M42.921,0,334.677,3.054c23.7,0,42.921,21.473,42.921,47.962S321.948,275.474,42.921,275.474C19.216,275.474,0,254,0,227.512V47.962C0,21.473,19.216,0,42.921,0Z" transform="matrix(0.999, 0.035, -0.035, 0.999, 30.894, 17.05)"/>
      <path id="Path_33" data-name="Path 33" class="cls-22" d="M43.866,0H304.811c24.226,0,43.866,20.31,43.866,45.365h0c0,25.054-19.639,215.191-304.811,215.191C19.639,260.556,0,240.245,0,215.191V45.365C0,20.31,19.639,0,43.866,0Z" transform="matrix(0.999, 0.035, -0.035, 0.999, 41.841, 27.072)"/>
      <g id="Ellipse_14" data-name="Ellipse 14" class="cls-23" transform="matrix(0.999, 0.035, -0.035, 0.999, 155.419, 60.575)">
        <ellipse class="cls-24" cx="75.824" cy="75.824" rx="75.824" ry="75.824"/>
        <ellipse class="cls-1" cx="75.824" cy="75.824" rx="73.324" ry="73.324"/>
      </g>
      <path id="Path_28" data-name="Path 28" class="cls-22" d="M43.866,260.556H304.811c24.226,0,43.866-20.31,43.866-45.365h0C348.677,190.137,329.038,0,43.866,0,19.639,0,0,20.31,0,45.365V215.191C0,240.245,19.639,260.556,43.866,260.556Z" transform="matrix(-0.999, 0.035, -0.035, -0.999, 995.93, 287.469)"/>
      <g id="Ellipse_13" data-name="Ellipse 13" class="cls-23" transform="matrix(-0.999, 0.035, -0.035, -0.999, 877.688, 212.13)">
        <ellipse class="cls-24" cx="75.824" cy="75.824" rx="75.824" ry="75.824"/>
        <ellipse class="cls-1" cx="75.824" cy="75.824" rx="73.324" ry="73.324"/>
      </g>
    </g>
  </g>
</svg>
