<svg xmlns="http://www.w3.org/2000/svg" xmlns:xlink="http://www.w3.org/1999/xlink" width="758.504" height="553.494" viewBox="0 0 758.504 553.494">
  <defs>
    <style>
      .cls-1 {
        fill: none;
      }

      .cls-2 {
        clip-path: url(#clip-path);
      }

      .cls-3 {
        clip-path: url(#clip-path-2);
      }

      .cls-4 {
        clip-path: url(#clip-path-3);
      }

      .cls-20, .cls-5 {
        fill: #fe0c0c;
      }

      .cls-6 {
        clip-path: url(#clip-path-4);
      }

      .cls-7 {
        fill: #cf0000;
      }

      .cls-8 {
        clip-path: url(#clip-path-5);
      }

      .cls-9 {
        clip-path: url(#clip-path-7);
      }

      .cls-10 {
        clip-path: url(#clip-path-8);
      }

      .cls-11 {
        fill: #ff4646;
      }

      .cls-12 {
        fill: #a90000;
      }

      .cls-13 {
        fill: #341818;
      }

      .cls-14 {
        clip-path: url(#clip-path-9);
      }

      .cls-15 {
        fill: #ec1c1c;
      }

      .cls-16 {
        fill: #7e0000;
      }

      .cls-17, .cls-18 {
        fill: #3e2929;
      }

      .cls-17 {
        stroke: #fe0c0c;
        stroke-width: 8px;
      }

      .cls-19, .cls-20 {
        stroke: none;
      }
    </style>
    <clipPath id="clip-path">
      <rect class="cls-1" width="758.505" height="553.494"/>
    </clipPath>
    <clipPath id="clip-path-2">
      <rect class="cls-1" width="692.373" height="303.014"/>
    </clipPath>
    <clipPath id="clip-path-3">
      <rect class="cls-1" width="692.373" height="298.513"/>
    </clipPath>
    <clipPath id="clip-path-4">
      <rect class="cls-1" width="662.309" height="285.476"/>
    </clipPath>
    <clipPath id="clip-path-5">
      <rect class="cls-1" width="693.346" height="316.216"/>
    </clipPath>
    <clipPath id="clip-path-7">
      <rect class="cls-1" width="655.421" height="297.844"/>
    </clipPath>
    <clipPath id="clip-path-8">
      <rect class="cls-1" width="281.786" height="176.566"/>
    </clipPath>
    <clipPath id="clip-path-9">
      <rect class="cls-1" width="758.505" height="229.614"/>
    </clipPath>
  </defs>
  <g id="Component_38_1" data-name="Component 38 – 1" class="cls-2" transform="translate(0 0)">
    <g id="Component_15_1" data-name="Component 15 – 1" class="cls-3" transform="translate(33.428 0)">
      <g id="Bridge" class="cls-4" transform="translate(0)">
        <path id="Path_5" data-name="Path 5" class="cls-5" d="M453.9-24.69s-78.858-3.981-87.551-5.076-32.235-6.968-56.9,5.076S289.782,58.556,115.09,55.57C-12.434,53.39.331,266.353.331,266.353H453.9c15.57,0,28.191-12.082,28.191-26.986V19.623C482.094,4.718,483.853-23.794,453.9-24.69Z" transform="translate(210.259 32.16)"/>
        <path id="Path_6" data-name="Path 6" class="cls-5" d="M28.187-24.69s78.858-3.981,87.551-5.076,32.235-6.968,56.9,5.076S192.308,58.556,367,55.57c127.524-2.18,114.759,210.783,114.759,210.783H28.187C12.617,266.353,0,254.271,0,239.367V19.623C0,4.719-1.763-23.794,28.187-24.69Z" transform="translate(0.024 32.16)"/>
      </g>
      <g id="Bridge-2" data-name="Bridge" class="cls-6" transform="translate(15.94 13.037)">
        <path id="Path_6-2" data-name="Path 6" class="cls-7" d="M26.962-25.016s75.434-3.808,83.75-4.855,30.835-6.663,54.429,4.855,18.816,79.611,185.923,76.755c121.986-2.085,109.776,201.578,109.776,201.578H26.962c-14.894,0-26.967-11.554-26.967-25.808V17.361C-.006,3.108-1.688-24.16,26.962-25.016Z" transform="translate(0.024 32.16)"/>
        <path id="Path_5-2" data-name="Path 5" class="cls-7" d="M434.192-25.016s-75.434-3.808-83.75-4.855-30.835-6.663-54.429,4.855S277.2,54.594,110.092,51.738C-11.9,49.654.316,253.316.316,253.316H434.192c14.894,0,26.967-11.554,26.967-25.807V17.361C461.16,3.108,462.842-24.16,434.192-25.016Z" transform="translate(201.13 32.16)"/>
      </g>
    </g>
    <g id="Component_14_1" data-name="Component 14 – 1" class="cls-8" transform="translate(32.785 237.277)">
      <g id="Bottom_Half" data-name="Bottom Half" class="cls-8" transform="translate(-2.393 0)">
        <path id="Path_22" data-name="Path 22" class="cls-5" d="M412.8,21.626,384.655,190.81,360.989,333.57H78.28c-9.56,0-14.057.177-17.722-17.447S0,21.626,0,21.626C0,12.015,412.8,21.626,412.8,21.626Z" transform="translate(0 -17.354)"/>
        <path id="Path_29" data-name="Path 29" class="cls-5" d="M0,21.626,28.143,190.81,51.809,333.57h282.71c9.56,0,14.057.177,17.722-17.447S412.8,21.626,412.8,21.626C412.8,12.015,0,21.626,0,21.626Z" transform="translate(280.548 -17.354)"/>
      </g>
      <g id="Bottom_Half-2" data-name="Bottom Half" class="cls-9" transform="translate(20.12 9.755)">
        <path id="Path_22-2" data-name="Path 22" class="cls-7" d="M412.8,21.378,384.655,180.732,360.989,315.2H78.28c-9.56,0-14.057.167-17.722-16.433S0,21.378,0,21.378C0,12.325,412.8,21.378,412.8,21.378Z" transform="translate(0 -17.354)"/>
        <path id="Path_29-2" data-name="Path 29" class="cls-7" d="M0,21.378,28.143,180.732,51.809,315.2h282.71c9.56,0,14.057.166,17.722-16.433S412.8,21.378,412.8,21.378C412.8,12.325,0,21.378,0,21.378Z" transform="translate(242.623 -17.354)"/>
      </g>
    </g>
    <g id="Component_26_1" data-name="Component 26 – 1" class="cls-10" transform="translate(237.877 103.504)">
      <rect id="Rectangle_39" data-name="Rectangle 39" class="cls-5" width="281.119" height="136.125" rx="54" transform="translate(0.581 8.374)"/>
      <path id="Path_84" data-name="Path 84" class="cls-11" d="M64.6,0H217.188a64.6,64.6,0,0,1,64.6,64.6V94.031a64.6,64.6,0,0,1-64.6,64.6H64.6A64.6,64.6,0,0,1,0,94.031V64.6A64.6,64.6,0,0,1,64.6,0Z" transform="translate(0 17.936)"/>
      <path id="Path_76" data-name="Path 76" class="cls-12" d="M120.377,0,241.585,85.827s-14.385,18.481-49.776,18.682-147.7,0-147.7,0C13.352,101.39,0,85.419,0,85.419Z" transform="translate(261.933 121.351) rotate(180)"/>
      <path id="Path_77" data-name="Path 77" class="cls-13" d="M43.118,0l42.2,29.684L56.459,58.546,0,43.118Z" transform="translate(112.048 47.528) rotate(45)"/>
      <path id="Path_78" data-name="Path 78" class="cls-13" d="M43.118,58.546l42.2-29.684L56.459,0,0,15.428Z" transform="translate(212.472 88.926) rotate(135)"/>
    </g>
    <g id="Component_27_1" data-name="Component 27 – 1" class="cls-14" transform="translate(0 184.564)">
      <rect id="Rectangle_31" data-name="Rectangle 31" class="cls-15" width="285.762" height="59.975" transform="translate(247.689 39.564)"/>
      <rect id="Rectangle_32" data-name="Rectangle 32" class="cls-16" width="642.083" height="52.037" transform="translate(69.528 61.614)"/>
      <path id="Path_30" data-name="Path 30" class="cls-16" d="M40.1,0H278.614c22.144,0,40.1,17.331,40.1,38.709h0c0,21.378-17.951,183.619-278.614,183.619C17.951,222.328,0,205,0,183.619V38.709C0,17.331,17.951,0,40.1,0Z" transform="translate(6.913 7.286)"/>
      <path id="Path_25" data-name="Path 25" class="cls-16" d="M40.1,222.328H278.614c22.144,0,40.1-17.331,40.1-38.709h0C318.71,162.241,300.758,0,40.1,0,17.951,0,0,17.331,0,38.709v144.91C0,205,17.951,222.328,40.1,222.328Z" transform="translate(751.591 229.614) rotate(-180)"/>
      <path id="Path_31" data-name="Path 31" class="cls-5" d="M39.55,0H274.824a39.55,39.55,0,0,1,39.55,39.55h0c0,21.843-17.707,187.61-274.824,187.61A39.55,39.55,0,0,1,0,187.61V39.55A39.55,39.55,0,0,1,39.55,0Z" transform="translate(0 0)"/>
      <path id="Path_26" data-name="Path 26" class="cls-5" d="M39.55,227.161H274.824a39.55,39.55,0,0,0,39.55-39.55h0C314.374,165.767,296.667,0,39.55,0A39.55,39.55,0,0,0,0,39.55v148.06A39.55,39.55,0,0,0,39.55,227.161Z" transform="translate(758.505 227.161) rotate(-180)"/>
      <path id="Path_27" data-name="Path 27" class="cls-12" d="M32,205.367,249.5,203.09c17.672,0,32-16.008,32-35.756S240.013,0,32,0C14.326,0,0,16.008,0,35.756V169.611C0,189.358,14.326,205.367,32,205.367Z" transform="translate(744.207 216.315) rotate(-180)"/>
      <path id="Path_32" data-name="Path 32" class="cls-12" d="M32,0,249.5,2.277c17.672,0,32,16.008,32,35.756S240.013,205.367,32,205.367c-17.672,0-32-16.008-32-35.756V35.756C0,16.008,14.326,0,32,0Z" transform="translate(15.494 10.953)"/>
      <path id="Path_33" data-name="Path 33" class="cls-7" d="M32.7,0H227.238c18.061,0,32.7,15.142,32.7,33.82h0C259.94,52.5,245.3,194.245,32.7,194.245,14.641,194.245,0,179.1,0,160.426V33.82C0,15.142,14.641,0,32.7,0Z" transform="translate(23.856 16.85)"/>
      <g id="Ellipse_14" data-name="Ellipse 14" class="cls-17" transform="translate(109.991 35.699)">
        <ellipse class="cls-19" cx="56.527" cy="56.527" rx="56.527" ry="56.527"/>
        <ellipse class="cls-1" cx="56.527" cy="56.527" rx="52.527" ry="52.527"/>
      </g>
      <path id="Path_28" data-name="Path 28" class="cls-7" d="M32.7,194.245H227.238c18.061,0,32.7-15.142,32.7-33.82h0C259.94,141.748,245.3,0,32.7,0,14.641,0,0,15.141,0,33.819V160.426C0,179.1,14.641,194.245,32.7,194.245Z" transform="translate(736.488 211.095) rotate(-180)"/>
      <g id="Path_83" data-name="Path 83" class="cls-18" transform="translate(648.514 148.753) rotate(-180)">
        <path class="cls-19" d="M 56.52677536010742 109.0536041259766 C 49.43394088745117 109.0536041259766 42.55539321899414 107.6653671264648 36.08221054077148 104.9274215698242 C 29.82782936096191 102.2820587158203 24.20999336242676 98.49413299560547 19.38473892211914 93.66885375976563 C 14.55946636199951 88.84360504150391 10.77153873443604 83.22574615478516 8.126174926757813 76.97138214111328 C 5.388229846954346 70.49818420410156 3.999993562698364 63.61963653564453 3.999993562698364 56.52680206298828 C 3.999993562698364 49.43396759033203 5.388229846954346 42.555419921875 8.126174926757813 36.08222198486328 C 10.77153873443604 29.82785606384277 14.55946636199951 24.21000289916992 19.38473892211914 19.3847484588623 C 24.20999336242676 14.55947494506836 29.82782936096191 10.77154731750488 36.08221054077148 8.12618350982666 C 42.55539321899414 5.388238430023193 49.43394088745117 4.000001907348633 56.52677536010742 4.000001907348633 C 63.61960983276367 4.000001907348633 70.49815368652344 5.388238430023193 76.97133636474609 8.12618350982666 C 83.22572326660156 10.77154731750488 88.84355926513672 14.55947494506836 93.66880798339844 19.3847484588623 C 98.49408721923828 24.21000289916992 102.2820129394531 29.82785606384277 104.927375793457 36.08222198486328 C 107.6653213500977 42.555419921875 109.0535583496094 49.43396759033203 109.0535583496094 56.52680206298828 C 109.0535583496094 63.61963653564453 107.6653213500977 70.49818420410156 104.927375793457 76.97138214111328 C 102.2820129394531 83.22574615478516 98.49408721923828 88.84360504150391 93.66880798339844 93.66885375976563 C 88.84355926513672 98.49413299560547 83.22572326660156 102.2820587158203 76.97133636474609 104.9274215698242 C 70.49815368652344 107.6653671264648 63.61960983276367 109.0536041259766 56.52677536010742 109.0536041259766 Z"/>
        <path class="cls-20" d="M 56.52677536010742 8.000007629394531 C 29.76902770996094 8.000007629394531 8 29.76902770996094 8 56.52680206298828 C 8 83.28457641601563 29.76902770996094 105.053596496582 56.52677536010742 105.053596496582 C 83.28452301025391 105.053596496582 105.0535507202148 83.28457641601563 105.0535507202148 56.52680206298828 C 105.0535507202148 29.76902770996094 83.28452301025391 8.000007629394531 56.52677536010742 8.000007629394531 M 56.52677536010742 7.62939453125e-06 C 87.74563598632813 7.62939453125e-06 113.0535507202148 25.30791473388672 113.0535507202148 56.52680206298828 C 113.0535507202148 87.74568939208984 87.74563598632813 113.053596496582 56.52677536010742 113.053596496582 C 25.30789184570313 113.053596496582 0 87.74568939208984 0 56.52680206298828 C 0 25.30791473388672 25.30789184570313 7.62939453125e-06 56.52677536010742 7.62939453125e-06 Z"/>
      </g>
    </g>
  </g>
</svg>
